<svg width="835.5" height="48" viewBox="0 0 4456 256" fill="none" xmlns="http://www.w3.org/2000/svg" xmlns:xlink="http://www.w3.org/1999/xlink" version="1.1">
  
  <g transform="translate(0, 0)">
    <svg width="256" height="256" viewBox="0 0 256 256" fill="none" xmlns="http://www.w3.org/2000/svg">
<rect width="256" height="256" rx="60" fill="#242938"/>
<path d="M107.028 48.8181H60.7888C51.5798 48.8181 44.0108 56.6801 44.0108 66.4151C43.6818 75.8111 50.9178 83.6701 59.9698 84.0111H107.522L107.028 48.8181Z" fill="#073042"/>
<path d="M211.835 205.303H60.7887C51.4147 205.303 44.0107 197.445 44.0107 187.707V66.2461C44.0107 75.9821 51.5797 83.8411 60.7887 84.0111H187.321C187.321 84.0111 212 81.7931 212 101.097V205.303H211.835Z" fill="#4285F4"/>
<path d="M141.413 143.12C148.159 137.825 149.475 127.917 144.379 121.082C141.579 117.324 137.301 114.933 132.692 114.761H133.186C134.011 114.591 134.997 114.591 135.823 114.761V105.024C135.823 103.828 135.327 102.803 134.34 102.292C132.858 101.437 131.049 101.95 130.227 103.487C129.897 104 129.733 104.512 129.897 105.195V115.102C121.671 116.469 115.912 124.499 117.225 133.213V133.383C117.886 137.483 120.027 141.242 123.316 143.633L95.5088 205.474H113.609L126.441 177.116C127.925 173.698 131.872 172.162 135.327 173.87C136.646 174.554 137.795 175.749 138.453 177.116L151.783 205.474H170.209L141.413 143.12ZM132.036 140.387C126.77 140.387 122.657 135.945 122.657 130.48C122.657 125.011 126.935 120.741 132.199 120.911C134.667 120.911 136.81 121.937 138.617 123.647C142.401 127.403 142.401 133.554 138.781 137.483C137.137 139.192 134.667 140.387 132.036 140.387Z" fill="#3870B2"/>
<path d="M96.9917 57.363H161.818V69.662H96.9917V57.363Z" fill="white"/>
<path d="M127.1 120.741C132.199 120.741 136.48 125.183 136.316 130.649C136.316 135.945 132.036 140.387 126.77 140.216C121.671 140.216 117.556 135.775 117.556 130.48C117.556 127.917 118.542 125.524 120.357 123.647C122.164 121.766 124.63 120.741 127.1 120.741ZM130.72 115.102V104.853C130.72 103.657 130.227 102.633 129.24 102.119C127.76 101.265 125.949 101.778 125.123 103.316C124.793 103.828 124.63 104.341 124.793 105.024V114.933C116.567 116.298 110.808 124.33 112.129 133.042V133.213C112.788 137.31 114.924 141.07 118.215 143.46L83.1688 221.532C81.8538 224.268 82.0178 227.682 83.8278 230.245C86.4568 234.173 91.5618 235.198 95.3418 232.466C96.6628 231.611 97.6488 230.245 98.3058 228.878L121.671 176.944C123.151 173.528 127.1 171.99 130.556 173.698C131.872 174.382 133.022 175.579 133.681 176.944L157.539 228.366C159.516 232.636 164.449 234.344 168.566 232.293C172.676 230.245 174.323 225.119 172.347 220.848L136.316 143.12C142.896 137.652 144.049 127.575 138.781 120.741C136.81 118.007 134.011 116.128 130.72 115.102Z" fill="#073042"/>
<path d="M152.276 68.296C149.805 68.296 147.831 66.415 147.831 63.854C147.831 62.658 148.323 61.292 149.146 60.437C150.957 58.73 153.591 58.73 155.401 60.437C156.222 61.292 156.716 62.487 156.716 63.683C156.552 66.246 154.742 68.125 152.276 68.296ZM103.572 68.125C101.1 68.125 99.1288 66.075 99.1288 63.683C99.1288 62.487 99.6238 61.292 100.443 60.437C101.925 58.559 104.726 58.216 106.533 59.756H106.698C108.506 61.463 108.67 64.366 107.028 66.246L106.533 66.927C105.712 67.782 104.562 68.296 103.406 68.296L103.572 68.125ZM153.591 40.62L162.311 24.904C162.804 24.05 162.475 23.025 161.818 22.342C160.995 22 160.174 22.171 159.681 22.855L150.629 39.083C136.151 32.421 119.698 32.421 105.383 39.083L96.4978 23.025C96.1688 22.513 95.5088 22 94.8488 22C94.1918 22 93.5328 22.342 93.2018 23.025C92.8738 23.538 92.8738 24.391 93.2018 24.904L102.09 40.62C86.6208 49.33 76.5848 65.734 75.1078 83.841H180.737C179.424 65.564 169.221 49.33 153.755 40.62" fill="#3DDC84"/>
<path d="M197.37 117.839H190.459C190.128 118.007 189.8 118.349 189.8 118.861V232.466C189.8 232.977 190.128 233.319 190.625 233.319H197.863C206.254 233.319 213 226.143 213 217.603V101.95C213 110.662 206.254 117.667 197.863 117.667H197.37V117.839Z" fill="#073042"/>
</svg>

  </g>
  <g transform="translate(300, 0)">
    <svg xmlns="http://www.w3.org/2000/svg" width="256" height="256" fill="none" viewBox="0 0 256 256"><rect width="256" height="256" fill="#00599C" rx="60"/><path fill="#fff" d="M110.759 210.517C65.1254 210.517 28 173.392 28 127.759C28 82.1254 65.1254 45 110.759 45C140.204 45 167.667 60.8458 182.427 86.3533L146.611 107.079C139.224 94.3111 125.485 86.3793 110.759 86.3793C87.9416 86.3793 69.3793 104.942 69.3793 127.759C69.3793 150.575 87.9416 169.138 110.759 169.138C125.486 169.138 139.225 161.206 146.613 148.436L182.429 169.161C167.669 194.671 140.206 210.517 110.759 210.517Z"/><path fill="#fff" d="M193.517 123.161H184.321V113.965H175.127V123.161H165.931V132.356H175.127V141.552H184.321V132.356H193.517V123.161Z"/><path fill="#fff" d="M228 123.161H218.804V113.965H209.61V123.161H200.414V132.356H209.61V141.552H218.804V132.356H228V123.161Z"/></svg>
  </g>
  <g transform="translate(600, 0)">
    <svg xmlns="http://www.w3.org/2000/svg" width="256" height="256" fill="none" viewBox="0 0 256 256"><rect width="256" height="256" fill="#242938" rx="60"/><path fill="#44D1FD" d="M144.934 38.0615L200.709 38L107.134 131.526L82.7472 155.777L55 127.996L144.934 38.0615ZM144.415 121.569C145.139 120.613 146.471 121.085 147.482 120.962L200.661 120.975L152.194 169.395L124.303 141.675L144.415 121.569Z"/><path fill="#1FBCFD" d="M96.5013 169.442L124.303 141.675L152.194 169.395L152.31 169.518L124.31 197.258L96.5013 169.442V169.442Z"/><path fill="#08589C" d="M124.31 197.258L152.31 169.518L200.681 217.937C182.461 217.978 164.247 217.923 146.034 217.964C144.996 218.196 144.354 217.247 143.691 216.66L124.31 197.258V197.258Z"/></svg>
  </g>
  <g transform="translate(900, 0)">
    <svg xmlns="http://www.w3.org/2000/svg" width="256" height="256" fill="none" viewBox="0 0 256 256"><rect width="256" height="256" fill="#242938" rx="60"/><path fill="#00C4B3" d="M87.4494 87.005L75.8113 75.3612L75.8563 159.463L75.9969 163.39C76.0532 165.246 76.4047 167.327 76.9672 169.493L169.147 202.005L192.209 191.796L192.229 191.762L87.4438 87.005H87.4494Z"/><path fill="#22D3C5" d="M76.97 169.493H76.9785C76.97 169.459 76.956 169.42 76.9391 169.38C76.9588 169.423 76.9588 169.465 76.9672 169.493H76.97ZM192.187 191.796L169.124 202.005L76.9588 169.493C78.7166 176.254 82.6175 183.853 86.8081 187.999L116.874 217.916L183.778 218L192.159 191.796H192.187Z"/><path fill="#0075C9" d="M76.1263 75.364L40.2866 129.491C37.311 132.669 38.796 139.227 43.5856 144.059L64.2744 164.917L77.2794 169.501C76.7169 167.341 76.3625 165.282 76.3091 163.398L76.1685 159.472L76.1263 75.3696V75.364Z"/><path fill="#0075C9" d="M169.906 76.4469C167.741 75.8984 165.665 75.5525 163.795 75.499L159.638 75.3472L75.8113 75.3669L192.226 191.765L202.453 168.702L169.912 76.4525L169.906 76.4469Z"/><path fill="#00A8E1" d="M169.799 76.4271C169.836 76.4412 169.875 76.4496 169.906 76.4553V76.444C169.87 76.4356 169.836 76.4356 169.799 76.4215V76.4271ZM188.404 86.3215C184.171 82.0606 176.676 78.1653 169.906 76.4553L202.447 168.697L192.209 191.759L217.19 183.777L217.246 115.287L188.401 86.3187L188.404 86.3215Z"/><path fill="#00C4B3" d="M165.344 63.5234L144.532 42.8234C139.677 38.0506 133.119 36.56 129.969 39.53L75.845 75.3613L159.672 75.3416L163.828 75.4934C165.699 75.5497 167.777 75.8928 169.94 76.4413L165.35 63.5178L165.344 63.5234Z"/></svg>
  </g>
  <g transform="translate(1200, 0)">
    <svg xmlns="http://www.w3.org/2000/svg" width="256" height="256" fill="none" viewBox="0 0 256 256"><rect width="256" height="256" fill="#E43717" rx="60"/><path fill="#fff" d="M226.574 125.551L218.184 120.353C218.113 119.535 218.033 118.719 217.945 117.907L225.169 111.18C225.903 110.496 226.232 109.483 226.033 108.504C225.84 107.52 225.15 106.71 224.212 106.364L214.98 102.924C214.749 102.125 214.506 101.332 214.258 100.535L220.011 92.5468C220.598 91.7345 220.718 90.6777 220.336 89.7566C219.953 88.8335 219.118 88.1723 218.138 88.0098L208.409 86.4275C208.031 85.6898 207.637 84.9636 207.239 84.2488L211.33 75.2668C211.748 74.3533 211.662 73.2983 211.104 72.4575C210.548 71.6242 209.606 71.1369 208.6 71.1751L198.719 71.5191C198.209 70.8808 197.689 70.2483 197.159 69.6272L199.434 60.0144C199.663 59.0379 199.375 58.0078 198.664 57.3007C197.958 56.5936 196.934 56.3012 195.949 56.5305L186.336 58.8047C185.713 58.2772 185.08 57.7555 184.44 57.2453L184.786 47.365C184.824 46.3655 184.336 45.4157 183.503 44.8615C182.668 44.3034 181.611 44.2193 180.693 44.634L171.729 48.7238C171.005 48.3263 170.279 47.9326 169.551 47.5523L167.964 37.8249C167.804 36.8387 167.142 36.0017 166.217 35.6271C165.294 35.243 164.23 35.3672 163.427 35.952L155.438 41.7044C154.65 41.454 153.859 41.2132 153.068 40.9839L149.627 31.7534C149.277 30.8131 148.467 30.1232 147.487 29.9283C146.504 29.7353 145.499 30.0621 144.811 30.7921L138.083 38.016C137.271 37.9262 136.453 37.844 135.637 37.7771L130.438 29.3683C129.912 28.5179 128.981 28 127.972 28C126.963 28 126.042 28.5179 125.526 29.3683L120.327 37.7771C119.509 37.844 118.691 37.9262 117.881 38.016L111.153 30.7921C110.471 30.0621 109.458 29.7353 108.477 29.9283C107.493 30.1251 106.682 30.8131 106.336 31.7534L102.896 40.9839C102.097 41.2132 101.306 41.4559 100.526 41.7044L92.5368 35.952C91.7245 35.3653 90.6657 35.2411 89.7463 35.6271C88.8232 36.0093 88.16 36.8464 87.9994 37.8249L86.413 47.5523C85.6791 47.9326 84.9528 48.3243 84.2342 48.7238L75.2702 44.634C74.3585 44.2174 73.3016 44.3034 72.4606 44.8615C71.6273 45.4157 71.1399 46.3655 71.1781 47.365L71.5221 57.2453C70.8838 57.7555 70.2511 58.2772 69.6261 58.8047L60.0123 56.5305C59.0356 56.3031 58.0054 56.5936 57.2983 57.3007C56.5873 58.0097 56.2987 59.0321 56.528 60.0144L58.7833 69.6272C58.2577 70.2502 57.7379 70.8808 57.2275 71.5191L47.3461 71.1751C46.3504 71.1465 45.3966 71.6242 44.8423 72.4575C44.2842 73.2869 44.2002 74.3494 44.6149 75.2668L48.7051 84.2488C48.3075 84.9693 47.9138 85.6955 47.5335 86.4275L37.805 88.0098C36.8168 88.1704 35.9835 88.8316 35.607 89.7566C35.2247 90.6835 35.3489 91.7441 35.9319 92.5468L41.6849 100.535C41.4345 101.324 41.1918 102.117 40.9624 102.924L31.7309 106.364C30.7943 106.714 30.1043 107.524 29.9094 108.504C29.7144 109.487 30.0413 110.492 30.7733 111.18L37.998 117.907C37.9082 118.719 37.8279 119.537 37.7591 120.353L29.3685 125.551C28.518 126.077 28 127.005 28 128.016C28 129.027 28.518 129.947 29.3685 130.463L37.7591 135.661C37.8279 136.479 37.9082 137.295 37.998 138.107L30.7733 144.834C30.0413 145.516 29.7144 146.529 29.9094 147.509C30.1043 148.494 30.7943 149.302 31.7309 149.65L40.9624 153.09C41.1918 153.889 41.4345 154.682 41.6849 155.479L35.9319 163.467C35.347 164.281 35.2228 165.338 35.607 166.257C35.9911 167.184 36.8264 167.845 37.8241 168.004L47.5526 169.586C47.9329 170.324 48.3228 171.05 48.7242 171.765L44.634 180.728C44.2174 181.639 44.3034 182.696 44.8615 183.537C45.4196 184.372 46.3695 184.86 47.3653 184.819L57.2275 184.474C57.7417 185.116 58.2597 185.744 58.7872 186.369L56.5318 195.982C56.3025 196.957 56.5911 197.97 57.3021 198.677C58.0074 199.39 59.0337 199.674 60.0161 199.445L69.63 197.19C70.2549 197.721 70.8876 198.237 71.526 198.746L71.1819 208.626C71.1437 209.625 71.6311 210.575 72.4644 211.129C73.2939 211.685 74.3566 211.77 75.274 211.353L84.238 207.263C84.9605 207.665 85.6868 208.054 86.4169 208.435L88.0032 218.162C88.1638 219.152 88.8251 219.989 89.7502 220.379C90.6733 220.763 91.7379 220.639 92.5407 220.056L100.53 214.304C101.319 214.554 102.112 214.799 102.919 215.028L106.359 224.258C106.709 225.195 107.519 225.889 108.5 226.08C109.482 226.278 110.488 225.95 111.176 225.216L117.904 217.992C118.716 218.086 119.534 218.164 120.35 218.237L125.549 226.626C126.072 227.473 127.003 227.995 127.995 227.995C128.987 227.995 129.926 227.475 130.461 226.626L135.66 218.237C136.478 218.164 137.294 218.086 138.106 217.992L144.834 225.216C145.516 225.95 146.529 226.278 147.51 226.08C148.494 225.887 149.304 225.195 149.65 224.258L153.091 215.028C153.889 214.799 154.683 214.554 155.48 214.304L163.469 220.056C164.281 220.639 165.34 220.763 166.259 220.379C167.184 219.999 167.846 219.16 168.006 218.162L169.593 208.435C170.327 208.054 171.053 207.659 171.772 207.263L180.736 211.353C181.647 211.77 182.704 211.685 183.545 211.129C184.378 210.571 184.864 209.625 184.828 208.626L184.484 198.746C185.122 198.235 185.755 197.721 186.378 197.19L195.991 199.445C196.968 199.674 197.998 199.39 198.706 198.677C199.417 197.968 199.705 196.949 199.476 195.982L197.22 186.369C197.748 185.744 198.268 185.116 198.776 184.474L208.658 184.819C209.653 184.86 210.607 184.372 211.161 183.537C211.72 182.704 211.806 181.643 211.387 180.728L207.297 171.765C207.696 171.041 208.088 170.314 208.467 169.586L218.195 168.004C219.185 167.845 220.018 167.184 220.393 166.257C220.775 165.334 220.655 164.27 220.068 163.467L214.315 155.479C214.564 154.689 214.806 153.896 215.038 153.09L224.269 149.65C225.208 149.298 225.899 148.49 226.091 147.509C226.289 146.527 225.961 145.522 225.227 144.834L218.002 138.107C218.09 137.295 218.17 136.477 218.241 135.661L226.632 130.463C227.482 129.939 228 129.008 228 128.016C228 127.025 227.484 126.086 226.633 125.551H226.574ZM170.382 195.306C167.171 194.614 165.145 191.445 165.833 188.235C166.519 185.024 169.675 182.979 172.886 183.667C176.097 184.353 178.142 187.527 177.454 190.738C176.766 193.949 173.612 195.994 170.401 195.306H170.382ZM167.534 176.004C164.61 175.377 161.724 177.238 161.112 180.17L158.131 194.082C148.937 198.249 138.635 200.58 127.932 200.58C116.923 200.58 106.526 198.153 97.1603 193.796L94.1786 179.883C93.5517 176.959 90.681 175.086 87.7567 175.717L75.467 178.354C73.1926 176.004 71.0711 173.5 69.1215 170.863H128.945C129.622 170.863 130.073 170.741 130.073 170.125V148.912C130.073 148.297 129.622 148.175 128.945 148.175H111.457V134.778H130.359C132.085 134.778 139.591 135.271 141.98 144.868C142.731 147.811 144.388 157.405 145.516 160.482C146.64 163.922 151.212 170.802 156.086 170.802H185.902C186.24 170.802 186.601 170.763 186.982 170.695C184.917 173.504 182.643 176.16 180.216 178.645L167.639 175.95L167.534 176.004ZM84.7751 195.019C81.5641 195.711 78.4104 193.666 77.7224 190.451C77.0362 187.241 79.0756 184.068 82.2904 183.38C85.5014 182.694 88.655 184.739 89.3431 187.948C90.0292 191.159 87.988 194.331 84.7751 195.019ZM62.0306 103.096C63.3609 106.096 62.0077 109.613 59.0108 110.95C56.0101 112.282 52.5124 110.928 51.1745 107.931C49.8366 104.934 51.1974 101.414 54.1943 100.076C57.1951 98.7463 60.6927 100.099 62.0306 103.096ZM55.0544 119.608L67.8601 113.913C70.5932 112.699 71.8356 109.498 70.6124 106.765L67.9748 100.803H78.334V147.433H57.5009C55.687 141.05 54.7104 134.323 54.7104 127.367C54.7104 124.71 54.8537 122.092 55.1289 119.512L55.0544 119.608ZM111.247 115.078V101.319H135.902C137.177 101.319 144.904 102.792 144.904 108.562C144.904 113.358 138.979 115.078 134.106 115.078H111.17H111.247ZM200.886 127.462C200.886 129.289 200.819 131.093 200.686 132.89H193.174C192.423 132.89 192.121 133.383 192.121 134.118V137.558C192.121 145.661 187.553 147.439 183.539 147.878C179.717 148.308 175.493 146.281 174.977 143.941C172.721 131.271 168.975 128.576 163.05 123.875C170.409 119.212 178.054 112.313 178.054 103.044C178.054 93.0876 171.231 86.8192 166.586 83.7424C160.05 79.4425 152.825 78.5825 150.875 78.5825H73.2767C83.8079 66.8485 98.1236 58.5161 114.178 55.4584L123.334 65.052C125.398 67.2116 128.819 67.3071 130.998 65.2279L141.242 55.4431C162.649 59.4373 180.806 72.7766 191.318 91.1803L184.304 107.004C183.094 109.737 184.329 112.948 187.056 114.152L200.55 120.152C200.783 122.541 200.905 124.968 200.905 127.414L200.886 127.462ZM123.288 47.3879C125.658 45.1137 129.423 45.2093 131.678 47.5809C133.934 49.9507 133.857 53.7155 131.481 55.9897C129.111 58.2639 125.346 58.1683 123.091 55.7948C120.836 53.425 120.912 49.6602 123.288 47.386V47.3879ZM192.859 103.383C194.187 100.382 197.694 99.0253 200.695 100.363C203.696 101.693 205.053 105.217 203.715 108.218C202.387 111.218 198.879 112.575 195.879 111.237C192.878 109.907 191.521 106.383 192.859 103.383Z"/></svg>
  </g>
  <g transform="translate(1500, 0)">
    <svg width="256" height="256" viewBox="0 0 256 256" fill="none" xmlns="http://www.w3.org/2000/svg">
<rect width="256" height="256" rx="60" fill="#242938"/>
<path d="M218 218H38V38H218L128 128L218 218Z" fill="url(#paint0_linear_7_120)"/>
<defs>
<linearGradient id="paint0_linear_7_120" x1="218" y1="38" x2="38" y2="218" gradientUnits="userSpaceOnUse">
<stop offset="0.00343514" stop-color="#E44857"/>
<stop offset="0.4689" stop-color="#C711E1"/>
<stop offset="1" stop-color="#7F52FF"/>
</linearGradient>
</defs>
</svg>

  </g>
  <g transform="translate(1800, 0)">
    <svg xmlns="http://www.w3.org/2000/svg" width="256" height="256" fill="none" viewBox="0 0 256 256"><rect width="256" height="256" fill="#242938" rx="60"/><path fill="#2489CA" d="M33.7158 100.208C33.7158 100.208 28.9814 96.795 34.6627 92.2381L47.8994 80.402C47.8994 80.402 51.6869 76.4172 55.6915 79.8891L177.84 172.368V216.714C177.84 216.714 177.781 223.678 168.844 222.908L33.7158 100.208Z"/><path fill="#1070B3" d="M65.1997 128.792L33.7157 157.415C33.7157 157.415 30.4805 159.822 33.7157 164.123L48.3333 177.418C48.3333 177.418 51.8052 181.147 56.9341 176.905L90.3119 151.596L65.1997 128.792Z"/><path fill="#0877B9" d="M120.474 129.029L178.215 84.9391L177.84 40.83C177.84 40.83 175.374 31.2033 167.148 36.2139L90.312 106.145L120.474 129.029Z"/><path fill="#3C99D4" d="M168.844 222.968C172.198 226.4 176.262 225.276 176.262 225.276L221.259 203.103C227.019 199.177 226.21 194.305 226.21 194.305V61.8982C226.21 56.0788 220.252 54.0667 220.252 54.0667L181.253 35.267C172.731 30 167.148 36.2139 167.148 36.2139C167.148 36.2139 174.328 31.0455 177.84 40.83V215.905C177.84 217.109 177.583 218.292 177.071 219.358C176.045 221.429 173.816 223.362 168.47 222.553L168.844 222.968Z"/></svg>
  </g>
  <g transform="translate(2100, 0)">
    <svg width="256" height="256" viewBox="0 0 256 256" fill="none" xmlns="http://www.w3.org/2000/svg">
<g clip-path="url(#clip0_33_480)">
<path d="M196 0H60C26.8629 0 0 26.8629 0 60V196C0 229.137 26.8629 256 60 256H196C229.137 256 256 229.137 256 196V60C256 26.8629 229.137 0 196 0Z" fill="#242938"/>
<path d="M40 65.6631L110.968 55.9983L111 124.453L40.0656 124.857L40 65.6631ZM110.935 132.34L110.99 200.855L40.0557 191.102L40.0517 131.881L110.935 132.34ZM119.537 54.7335L213.636 41V123.582L119.537 124.33V54.7335ZM213.658 132.984L213.636 215.195L119.537 201.914L119.406 132.831L213.658 132.984Z" fill="#00ADEF"/>
</g>
<defs>
<clipPath id="clip0_33_480">
<rect width="256" height="256" fill="white"/>
</clipPath>
</defs>
</svg>

  </g>
  <g transform="translate(2400, 0)">
    <svg width="256" height="256" viewBox="0 0 256 256" fill="none" xmlns="http://www.w3.org/2000/svg">
<rect width="256" height="256" rx="60" fill="#242938"/>
<path d="M67.8948 193.68H65.7476C64.8888 202.533 63.6863 213.294 48.57 213.294H41.6131C37.5764 213.294 37.4046 212.687 37.4046 209.823V163.738C37.4046 160.787 37.4046 159.572 45.4781 159.572H48.3124V156.968C45.2204 157.229 37.4905 157.229 33.9691 157.229C30.6195 157.229 23.9202 157.229 21 156.968V159.572H22.9754C29.5888 159.572 29.7606 160.526 29.7606 163.651V209.215C29.7606 212.34 29.5888 213.294 22.9754 213.294H21V215.985H65.5759L67.8948 193.68V193.68Z" fill="white"/>
<path d="M66.4348 156.881C66.0913 155.84 65.9195 155.493 64.8029 155.493C63.6864 155.493 63.4287 155.84 63.0852 156.881L49.2572 192.291C48.656 193.767 47.6253 196.457 42.3003 196.457V198.627H55.6129V196.457C52.9504 196.457 51.3185 195.242 51.3185 193.506C51.3185 193.072 51.4044 192.899 51.5762 192.291L54.4964 184.827H71.5022L74.9377 193.68C75.1095 194.027 75.2813 194.461 75.2813 194.721C75.2813 196.457 72.0175 196.457 70.3857 196.457V198.627H87.3056V196.457H86.1032C82.0664 196.457 81.637 195.85 81.0358 194.114L66.4348 156.881V156.881ZM62.9993 163.043L70.6433 182.658H55.3553L62.9993 163.043V163.043Z" fill="white"/>
<path d="M135.231 157.489H82.9251L81.3792 176.93H83.4405C84.6429 162.956 85.9312 160.092 98.9003 160.092C100.446 160.092 102.679 160.092 103.538 160.266C105.342 160.613 105.342 161.568 105.342 163.564V209.128C105.342 212.079 105.342 213.294 96.3237 213.294H92.8881V215.985C96.4095 215.724 105.084 215.724 109.035 215.724C112.986 215.724 121.832 215.724 125.354 215.985V213.294H121.918C112.9 213.294 112.9 212.079 112.9 209.128V163.564C112.9 161.828 112.9 160.613 114.446 160.266C115.391 160.092 117.71 160.092 119.342 160.092C132.225 160.092 133.513 162.956 134.716 176.93H136.863C136.863 176.93 135.231 157.489 135.231 157.489Z" fill="white"/>
<path d="M181.267 213.207H179.12C176.972 226.486 174.997 232.822 160.31 232.822H148.973C144.936 232.822 144.764 232.214 144.764 229.35V206.264H152.408C160.74 206.264 161.684 209.042 161.684 216.419H163.832V193.506H161.684C161.684 200.883 160.74 203.574 152.408 203.574H144.764V182.831C144.764 179.967 144.936 179.36 148.973 179.36H159.967C173.107 179.36 175.341 184.133 176.715 196.197H178.862C178.862 196.197 176.457 176.756 176.457 176.756H128.36V179.36H130.335C136.949 179.36 137.12 180.314 137.12 183.439V228.743C137.12 231.867 136.949 232.822 130.335 232.822H128.36V235.512H177.66L181.267 213.207V213.207Z" fill="white"/>
<path d="M207.119 182.571L218.886 165.213C220.69 162.436 223.61 159.659 231.254 159.572V156.968H210.812V159.572C214.248 159.659 216.138 161.568 216.138 163.564C216.138 164.432 215.966 164.606 215.365 165.56L205.573 180.141C205.573 180.141 194.58 163.477 194.58 163.477C194.408 163.217 193.978 162.523 193.978 162.175C193.978 161.134 195.868 159.659 199.475 159.572V156.968C196.555 157.229 190.285 157.229 187.022 157.229C184.359 157.229 179.034 157.142 175.856 156.968V159.572H177.488C182.212 159.572 183.844 160.179 185.476 162.609L201.193 186.65L187.193 207.566C185.991 209.302 183.414 213.294 174.825 213.294V215.985H195.267V213.294C191.316 213.208 189.856 210.864 189.856 209.302C189.856 208.521 190.113 208.174 190.715 207.219L202.825 189.08L216.395 209.736C216.567 210.083 216.825 210.43 216.825 210.691C216.825 211.732 214.935 213.208 211.242 213.294V215.985C214.248 215.724 220.518 215.724 223.696 215.724C227.303 215.724 231.254 215.811 234.861 215.985V213.294H233.229C228.763 213.294 226.959 212.86 225.156 210.17L207.119 182.571V182.571Z" fill="white"/>
<path d="M66.7719 20.0002C68.2818 22.7202 69.8515 25.0409 71.4904 27.0521C70.7411 26.9428 69.9691 26.8785 69.1673 26.8869C67.5836 26.9036 65.8906 27.1665 64.0565 27.744C67.257 30.4241 69.9618 32.38 72.3477 33.8874C68.6619 32.7101 64.6927 32.5424 60.0302 34.7547C63.4359 36.8858 66.2945 38.426 68.7965 39.5765C64.896 38.8576 60.8514 39.1851 56.4371 42.0958C59.3516 43.3945 61.872 44.3696 64.1086 45.1107C60.4373 45.239 56.8035 46.3729 53.247 49.7466C56.332 50.512 58.9752 51.0194 61.3003 51.3573C58.4546 51.9323 55.6631 53.2973 52.9577 56.0242C55.0538 56.4771 56.9406 56.8189 58.6674 57.0774C56.5416 58.1049 54.5288 59.6973 52.6892 62.1366C55.1046 62.3242 57.2416 62.4075 59.163 62.4154C56.8382 63.4911 54.662 65.1907 52.7202 67.9187C56.1701 68.0911 59.0519 68.0743 61.5378 67.9289C58.8059 69.0458 56.288 70.933 54.1347 74.1963C58.4223 74.2589 61.818 74.053 64.6659 73.7007C61.1311 74.6604 57.8591 76.5901 55.167 80.6701C58.6305 80.7206 61.5214 80.5946 64.0052 80.3603C60.9687 82.015 58.3608 84.5249 56.6435 88.8064C59.7696 88.2144 62.3895 87.5806 64.6455 86.917C62.2956 88.6271 60.3204 91.029 58.9976 94.6401C61.0948 94.1765 62.956 93.6911 64.6351 93.2049C63.1278 95.0273 61.9659 97.3083 61.3105 100.298C63.5878 99.4595 65.5576 98.6467 67.3093 97.8511C65.6451 99.7986 64.374 102.264 63.7472 105.554C66.9534 104.272 69.5613 103.047 71.7594 101.878C69.7444 104.032 68.2452 106.803 67.6501 110.665C71.5537 108.941 74.5486 107.345 76.9838 105.843C74.1871 108.187 72.0366 111.303 71.2947 116.116C76.3954 113.865 79.9551 111.822 82.7246 109.932C81.5352 112.337 80.9048 115.154 81.2068 118.666C86.1365 114.884 89.2593 111.823 91.5831 109.126C91.4263 110.868 91.55 112.762 92.0684 114.857C95.6074 108.776 99.1244 107.001 102.764 104.972C96.9668 107.891 97.8262 110.088 97.8262 112.637C102.249 107.98 108.416 103.041 110.303 99.9474C107.78 103.735 106.754 107.322 106.09 110.489C93.1853 117.314 85.328 119.097 76.5191 121.825C79.9359 123.079 83.5976 124.306 82.0843 126.048L78.0472 130.075C80.6276 129.273 83.2587 128.128 85.5432 129.693C85.319 131.81 82.6437 132.878 80.3599 134.112C84.3805 132.663 85.25 132.998 86.3071 133.338C86.8353 135.874 85.0025 137.238 83.8085 138.913C93.9358 131.213 107.15 125.13 116.456 122.589C129.546 118.181 146.424 113.599 151.014 102.425L155.619 83.9945C161 78.1704 165.95 72.1307 168.298 64.7903C183.283 61.8913 195.399 62.9379 208.039 63.2622C206.887 63.0702 169.445 56.7264 169.445 56.7264C158.502 41.7548 142.191 51.9313 136.817 66.7209C135.461 70.4538 127.723 70.455 125.481 66.7107C116.614 47.6211 89.6869 27.4384 66.7726 20.0001V20L66.7719 20.0002Z" fill="#008080"/>
<path d="M155.177 59.0692L155.079 59.2267C154.691 59.9501 154.034 60.4439 153.11 60.7426C152.187 61.0412 151.004 61.1369 149.626 61.0772L148.76 61.0378L149.39 61.6482C149.709 61.9558 149.799 62.2013 149.803 62.4159C149.808 62.6305 149.715 62.8623 149.508 63.1246C149.093 63.6494 148.269 64.2191 147.5 64.798L147.244 64.9751L147.421 65.2311C148.062 66.2151 148.356 66.9726 148.425 67.554C148.494 68.1355 148.359 68.5526 148.09 68.9123C147.553 69.6321 146.375 70.1198 145.314 70.7235L145.118 70.8219L145.157 71.0582C145.248 71.6116 145.099 72.0639 144.704 72.5149C144.309 72.9658 143.645 73.3959 142.755 73.7749L142.519 73.8733L142.558 74.1293C142.736 75.3144 143.092 76.3457 143.838 77.0034C144.52 77.6052 145.553 77.7638 146.87 77.4955C147.099 78.7589 147.428 79.9078 148.189 80.6651C148.959 81.4326 150.18 81.6596 151.811 81.236C152.178 82.1208 152.715 82.7513 153.327 83.1652C153.999 83.6197 154.878 83.803 155.6 84.0275L156.028 83.567C155.311 83.3443 154.252 83 153.681 82.614C153.11 82.2281 152.646 81.6986 152.323 80.7833L152.224 80.4683L151.909 80.5667C150.232 81.0822 149.302 80.8501 148.661 80.2123C148.021 79.5746 147.661 78.4217 147.441 77.0822L147.382 76.7278L147.027 76.8262C145.645 77.187 144.828 77.0025 144.271 76.5112C143.751 76.0524 143.443 75.2389 143.267 74.2276C144.068 73.8573 144.755 73.4522 145.196 72.9481C145.628 72.4555 145.814 71.8475 145.787 71.2157C146.764 70.6781 147.943 70.2162 148.622 69.3061C148.977 68.8303 149.161 68.2049 149.075 67.4753C148.996 66.8115 148.671 66.0446 148.11 65.1326C148.799 64.6254 149.546 64.117 150.02 63.5183C150.283 63.1855 150.481 62.8171 150.472 62.3963C150.468 62.1642 150.245 61.9527 150.118 61.7269C151.316 61.7426 152.407 61.6637 153.307 61.3725C154.256 61.0658 155.001 60.5068 155.492 59.7386C156.91 59.7457 158.378 60.0575 159.863 60.2504C161.388 60.4487 162.94 60.5019 164.41 59.8567L164.135 59.2465C162.834 59.8173 161.445 59.7936 159.961 59.6008C158.477 59.408 156.931 59.058 155.374 59.0693H155.177L155.177 59.0692Z" fill="white"/>
<path d="M160.686 58.8242C160.686 60.3691 159.434 61.6215 157.889 61.6215C156.344 61.6215 155.092 60.3691 155.092 58.8242C155.092 57.2794 156.344 56.0269 157.889 56.0269C159.434 56.0269 160.686 57.2793 160.686 58.8242Z" fill="white" stroke="white" stroke-width="0.660673"/>
<path d="M169.041 56.2C166.529 59.467 165.898 58.6232 164.369 59.1709L164.113 59.2693L164.153 59.5449C164.741 62.8263 166.686 63.8689 168.204 65.0616L168.288 64.7962L168.692 64.7193C167.171 63.5236 165.506 62.5109 164.901 59.7221C166.014 59.4587 167.077 59.7955 169.448 56.7101L169.041 56.2001V56.2Z" fill="white"/>
<path d="M72.3442 33.8794C77.0896 36.8218 84.8996 39.856 89.9155 43.0258C92.6748 44.7827 95.1532 46.5334 97.0813 48.0457C99.0094 49.5582 100.435 51.1207 100.96 51.6287C101.484 52.1367 101.84 51.8966 101.491 51.2349C101.142 50.5733 99.4247 49.0436 97.4751 47.5142C95.5255 45.9849 93.0455 44.2419 90.2698 42.4745C84.7184 38.9398 78.2029 35.7793 72.3445 33.879L72.3442 33.8794Z" fill="white"/>
<path d="M71.4905 27.0505C73.4798 27.5099 76.4158 29.2065 79.6806 31.0217C82.9455 32.8369 86.5038 35.0707 89.7597 37.2426C93.0158 39.4145 95.5263 41.3154 97.5332 42.8467C99.439 44.4776 100.38 45.5337 100.745 45.5305C100.795 45.5405 100.844 45.5413 100.922 45.5305C101 45.5197 101.131 45.4596 101.197 45.3336C101.264 45.2078 101.238 45.102 101.217 45.0384C101.196 44.9747 101.185 44.941 101.158 44.9005C101.05 44.7388 100.886 44.5874 100.646 44.369C100.167 43.9323 99.3739 43.2901 98.3626 42.5185C96.3399 40.9752 93.4007 38.8705 90.1338 36.6913C86.8668 34.5121 83.2834 32.2591 79.9955 30.4311C78.8267 29.998 73.095 26.9668 71.4901 27.0504H71.49L71.4905 27.0505Z" fill="white"/>
<path d="M68.7717 39.5781C74.8623 42.0641 83.5268 44.9843 89.3101 48.6194C92.4175 50.5927 95.124 52.5583 97.1452 54.171C98.1558 54.9773 98.9999 55.7021 99.6257 56.2774C100.252 56.8528 100.604 57.3751 100.807 57.5177C101.23 57.8161 101.555 57.6178 101.358 57.1436C101.21 56.7855 100.72 56.3748 100.078 55.7852C99.4372 55.1957 98.5789 54.4732 97.5586 53.6591C95.518 52.031 92.7937 50.0355 89.6644 48.0484C83.406 44.0743 75.9242 40.5803 68.772 39.5777L68.7717 39.5781Z" fill="white"/>
<path d="M64.0847 45.103C68.8314 45.1061 78.6366 49.4509 82.7696 51.6284C89.4708 55.2022 95.5645 59.7963 98.9323 63.0068C99.3057 63.3629 99.8513 63.0487 99.4245 62.5541C96.2963 58.9293 89.8355 54.6575 83.0847 51.0571C76.3339 47.4567 69.3437 45.0973 64.0845 45.1026L64.0847 45.103Z" fill="white"/>
<path d="M61.342 51.355C68.4781 52.3992 77.0321 55.2796 83.2644 58.4007C86.7423 60.1666 89.8436 62.058 92.2219 63.7357C94.5999 65.4134 96.3558 67.3023 96.7891 67.791C97.2224 68.2798 97.7385 68.3002 97.3403 67.4367C96.9421 66.5732 95.0053 64.8843 92.5959 63.1845C90.1866 61.4846 87.0651 59.5897 83.5601 57.81C76.5498 54.2506 68.5664 51.4504 61.3422 51.3549L61.342 51.355Z" fill="white"/>
<path d="M63.6973 56.6664C61.9246 56.5118 60.3289 56.8753 58.7031 57.0785C65.0438 56.4843 73.9103 59.3961 79.8208 62.1196C86.7832 65.3836 92.5643 69.8648 95.3339 72.7109C95.7674 73.1564 96.0738 72.5887 95.8457 72.2974C93.267 69.0052 87.1261 64.8048 80.0964 61.5094C74.8244 59.0378 69.0159 57.1307 63.6973 56.6666V56.6664Z" fill="white"/>
<path d="M59.1921 62.381C65.4318 62.8435 73.7859 64.3376 79.6379 67.0239C85.5234 69.7767 89.9897 73.346 92.2368 75.3712C92.5826 75.6828 93.1941 75.4621 92.7093 74.8987C90.6585 72.5159 85.8899 69.2199 79.9326 66.4337C73.9756 63.6474 66.7394 61.8629 59.1919 62.3813L59.1921 62.381Z" fill="white"/>
<path d="M64.7959 67.5738C63.4794 67.5293 62.8619 67.7756 61.5918 67.9128C65.8268 68.0994 72.5569 69.2257 76.2733 70.4874C81.0962 72.1606 85.0617 74.6811 87.3175 76.6493C87.753 77.0293 88.0777 76.5195 87.79 76.1965C85.6774 73.8258 81.3838 71.5554 76.4897 69.8574C72.8194 68.584 68.7454 67.7074 64.7959 67.5738H64.7959Z" fill="white"/>
<path d="M64.6142 73.7152C73.6673 74.3261 79.1416 75.9212 83.3378 79.6802C83.6522 79.9618 84.1486 79.5741 83.8103 79.2077C79.5041 74.5422 71.0257 73.2422 64.614 73.7153L64.6142 73.7152Z" fill="white"/>
<path d="M71.5854 79.1531C68.841 78.9323 66.5446 79.5321 64.0435 80.3649C71.3629 79.1983 74.4063 79.7577 79.9517 82.3619C80.5839 82.6588 80.5468 81.9594 80.2667 81.791C77.3208 80.0203 74.3293 79.3737 71.585 79.1531L71.5854 79.1531Z" fill="white"/>
<path d="M71.3246 84.2512C68.7298 84.4813 66.5265 85.3723 64.71 86.8497C71.9583 84.0559 73.9615 84.6118 79.5053 86.1834C80.2344 86.3901 80.0078 85.6878 79.7218 85.5731C76.4024 84.2422 73.9197 84.0211 71.3247 84.2511L71.3246 84.2512Z" fill="white"/>
<path d="M85.686 88.7405C81.8187 88.3224 77.4619 88.7914 73.638 89.4886C69.8143 90.1859 66.5257 91.6025 64.6694 93.1124C71.027 90.4274 72.1856 90.4331 73.7566 90.1383C77.5237 89.4513 81.2578 89.1835 85.6472 89.3902C86.0453 89.409 86.0249 88.7771 85.6866 88.7405H85.686Z" fill="white"/>
<path d="M87.9307 91.8706C83.7397 91.7123 79.411 92.7494 75.6661 93.8196C71.9216 94.8898 69.1422 96.3501 67.3093 97.8408C71.0179 96.0569 74.469 94.8494 75.8432 94.4495C79.5354 93.3942 83.2602 92.4807 87.9702 92.5399C88.3361 92.5446 88.5726 91.8948 87.9308 91.8706L87.9307 91.8706Z" fill="white"/>
<path d="M91.3532 94.4472C87.406 95.0299 83.2675 96.1957 79.6594 97.4197C76.0516 98.6438 73.4836 100.098 71.8083 101.838C76.0996 99.3746 78.4597 98.5109 79.8561 98.0301C83.4196 96.821 86.747 95.9797 91.4709 95.0968C92.0379 94.9908 91.5826 94.4132 91.3528 94.4472H91.3532Z" fill="white"/>
<path d="M93.3607 97.7352C85.445 98.9961 80.3153 102.411 77.0549 105.798C82.1078 101.991 85.6228 99.9451 93.4983 98.3846C93.9967 98.2858 93.8462 97.6575 93.3605 97.7349L93.3607 97.7352Z" fill="white"/>
<path d="M97.2179 100.628C89.2563 101.854 84.6649 106.694 82.7529 109.889C87.7902 104.857 91.7105 102.118 97.3554 101.278C97.9267 101.193 97.7809 100.541 97.2176 100.628L97.2179 100.628Z" fill="white"/>
<path d="M99.6206 103.149C98.3789 103.304 96.6892 104.184 95.0928 105.197C93.4963 106.21 92.2918 107.442 91.5735 109.03C93.4965 107.045 94.2663 106.508 95.4471 105.748C96.9798 104.775 98.5244 104.163 99.7781 103.799C100.366 103.628 99.9216 103.112 99.6206 103.149H99.6206Z" fill="white"/>
<path d="M160.686 58.8242C160.686 60.3691 159.434 61.6215 157.889 61.6215C156.344 61.6215 155.092 60.3691 155.092 58.8242C155.092 57.2794 156.344 56.0269 157.889 56.0269C159.434 56.0269 160.686 57.2793 160.686 58.8242Z" fill="white" stroke="white" stroke-width="0.660673"/>
<path d="M160.686 58.8242C160.686 60.3691 159.434 61.6215 157.889 61.6215C156.344 61.6215 155.092 60.3691 155.092 58.8242C155.092 57.2794 156.344 56.0269 157.889 56.0269C159.434 56.0269 160.686 57.2793 160.686 58.8242Z" fill="#37C871" stroke="white" stroke-width="0.660673"/>
</svg>

  </g>
  <g transform="translate(2700, 0)">
    <svg xmlns="http://www.w3.org/2000/svg" width="256" height="256" fill="none" viewBox="0 0 256 256"><rect width="256" height="256" fill="#242938" rx="60"/><path stroke="#fff" stroke-width="10" d="M217 69H39C33.4772 69 29 73.4772 29 79V177C29 182.523 33.4772 187 39 187H217C222.523 187 227 182.523 227 177V79C227 73.4772 222.523 69 217 69Z"/><path fill="#fff" d="M54 162V94H74L94 119L114 94H134V162H114V123L94 148L74 123V162H54ZM179 162L149 129H169V94H189V129H209L179 162Z"/></svg>
  </g>
  <g transform="translate(3000, 0)">
    <svg width="256" height="256" viewBox="0 0 256 256" fill="none" xmlns="http://www.w3.org/2000/svg">
<g clip-path="url(#clip0_33_895)">
<path d="M196 0H60C26.8629 0 0 26.8629 0 60V196C0 229.137 26.8629 256 60 256H196C229.137 256 256 229.137 256 196V60C256 26.8629 229.137 0 196 0Z" fill="#242938"/>
<g clip-path="url(#clip1_33_895)">
<mask id="mask0_33_895" style="mask-type:luminance" maskUnits="userSpaceOnUse" x="28" y="28" width="201" height="201">
<path d="M28.0781 28.0781H228.078V228.078H28.0781V28.0781Z" fill="white"/>
</mask>
<g mask="url(#mask0_33_895)">
<path d="M177.336 213.781C176.125 222.922 167.18 230.031 158.313 227.57C145.656 224.094 131.008 218.664 117.844 217.648L97.6486 216.086C94.3916 215.859 91.3323 214.441 89.0548 212.102L54.2892 176.281C52.4243 174.373 51.1772 171.948 50.7104 169.321C50.2436 166.695 50.5787 163.988 51.672 161.555C51.672 161.555 73.1564 114.289 73.9767 111.828C74.7579 109.367 77.7267 87.9219 79.4454 76.4375C79.9142 73.3516 81.3986 70.5781 83.7423 68.5078L124.875 31.4766C126.231 30.2583 127.823 29.3314 129.552 28.7533C131.281 28.1752 133.111 27.9581 134.927 28.1156C136.743 28.273 138.508 28.8016 140.111 29.6687C141.715 30.5357 143.124 31.7228 144.25 33.1563L178.781 77.0625C180.702 79.5758 181.745 82.6496 181.75 85.8125C181.75 94.1328 182.453 111.203 187.063 122.219C191.555 132.883 199.758 144.484 204.055 150.148C204.873 151.208 205.357 152.486 205.448 153.821C205.538 155.157 205.23 156.489 204.563 157.648C198.988 167.003 193.152 176.199 187.063 185.227C181.203 193.938 178.508 204.719 177.297 213.781H177.336Z" fill="#6C31E3"/>
<path d="M92.8047 214.836C108.977 182.023 108.508 158.508 101.633 141.789C95.3047 126.32 83.5469 116.594 74.2891 110.539C74.0547 111.438 73.7813 112.258 73.4297 113.078L51.6719 161.594C50.5736 164.024 50.2322 166.728 50.692 169.354C51.1518 171.981 52.3916 174.408 54.25 176.32L89.0547 212.141C90.1345 213.265 91.4039 214.191 92.8047 214.875V214.836Z" fill="url(#paint0_radial_33_895)"/>
<path d="M136.75 148.234C141.125 148.703 145.422 149.641 149.563 151.203C162.844 156.164 174.953 167.297 184.914 188.82C185.617 187.609 186.32 186.398 187.102 185.227C193.184 176.194 199.02 166.998 204.602 157.648C205.285 156.493 205.602 155.159 205.511 153.82C205.42 152.481 204.926 151.201 204.094 150.148C199.797 144.445 191.594 132.883 187.102 122.219C182.492 111.203 181.828 94.0938 181.789 85.8125C181.789 82.6484 180.774 79.5625 178.82 77.0625L144.25 33.1562C144.062 32.9284 143.867 32.707 143.664 32.4922C145.939 39.3036 146.21 46.6249 144.445 53.5859C142.772 59.2064 140.465 64.6187 137.57 69.7188L134.758 75.2656C130.249 83.8507 127.663 93.3147 127.18 103C126.711 114.484 129.055 128.937 136.75 148.234Z" fill="url(#paint1_radial_33_895)"/>
<path d="M136.75 148.234C129.055 128.937 126.672 114.484 127.18 102.961C127.663 93.2757 130.249 83.8117 134.758 75.2266C135.656 73.3516 136.633 71.5156 137.57 69.7188C140.344 64.2891 143.039 59.1719 144.445 53.5469C146.21 46.5859 145.939 39.2645 143.664 32.4531C141.294 29.8415 137.986 28.2762 134.463 28.1004C130.941 27.9247 127.493 29.1529 124.875 31.5156L83.7031 68.5469C81.4068 70.616 79.9015 73.4194 79.4453 76.4766L74.4453 109.68L74.25 110.578C83.5469 116.633 95.3438 126.359 101.633 141.828C102.933 144.961 103.952 148.203 104.68 151.516C115.617 148.859 126.438 147.219 136.75 148.273V148.234Z" fill="url(#paint2_radial_33_895)"/>
<path d="M158.313 227.609C167.18 230.031 176.125 222.922 177.336 213.781C178.344 205.074 180.911 196.619 184.914 188.82C174.914 167.336 162.844 156.164 149.602 151.203C135.539 145.969 120.227 147.688 104.68 151.477C108.156 167.258 106.086 187.922 92.8047 214.836C94.3672 215.539 95.9688 216.008 97.6875 216.125C97.6875 216.125 107.219 216.906 118.625 217.727C129.953 218.508 146.906 224.406 158.313 227.57V227.609Z" fill="url(#paint3_radial_33_895)"/>
<path fill-rule="evenodd" clip-rule="evenodd" d="M127.258 102.219C126.75 113.625 128.195 126.75 135.891 146.008L133.469 145.812C126.555 125.695 125.07 115.344 125.578 103.781C126.172 93.9407 128.89 84.3456 133.547 75.6562C134.484 73.7422 136.672 70.1484 137.649 68.3125C140.422 62.9609 142.297 60.1094 143.899 55.1875C146.125 48.3516 145.656 45.0703 145.383 41.8672C147.18 53.5469 140.422 63.7422 135.344 74.0547C130.674 82.7458 127.917 92.3353 127.258 102.18V102.219Z" fill="url(#paint4_radial_33_895)"/>
<path fill-rule="evenodd" clip-rule="evenodd" d="M103.898 142.609C104.836 144.719 105.695 146.437 106.242 149.055L104.172 149.484C103.352 146.438 102.687 144.25 101.516 141.672C94.5625 125.266 83.4297 116.828 74.2891 110.617C85.3047 116.555 96.6328 125.852 103.859 142.609H103.898Z" fill="url(#paint5_radial_33_895)"/>
<path fill-rule="evenodd" clip-rule="evenodd" d="M106.359 151.086C110.188 169.055 105.891 191.789 93.2344 213.937C103.82 191.984 108.938 170.93 104.68 151.437L106.359 151.086Z" fill="url(#paint6_radial_33_895)"/>
<path fill-rule="evenodd" clip-rule="evenodd" d="M150.07 149.484C170.812 157.258 178.82 174.328 184.797 188.547C177.375 173.664 167.141 157.18 149.328 151.047C135.734 146.437 124.289 146.984 104.68 151.437L104.25 149.484C125.031 144.758 135.891 144.211 150.07 149.484Z" fill="url(#paint7_radial_33_895)"/>
</g>
</g>
</g>
<defs>
<radialGradient id="paint0_radial_33_895" cx="0" cy="0" r="1" gradientUnits="userSpaceOnUse" gradientTransform="translate(91.0469 211.594) rotate(-104.693) scale(90.8621 60.5417)">
<stop stop-color="white" stop-opacity="0.4"/>
<stop offset="1" stop-opacity="0.1"/>
</radialGradient>
<radialGradient id="paint1_radial_33_895" cx="0" cy="0" r="1" gradientUnits="userSpaceOnUse" gradientTransform="translate(168.625 174.172) rotate(-82.4846) scale(149.33 110.326)">
<stop stop-color="white" stop-opacity="0.6"/>
<stop offset="1" stop-color="white" stop-opacity="0.1"/>
</radialGradient>
<radialGradient id="paint2_radial_33_895" cx="0" cy="0" r="1" gradientUnits="userSpaceOnUse" gradientTransform="translate(96.5156 147.922) rotate(-77.7949) scale(127.491 87.1129)">
<stop stop-color="white" stop-opacity="0.8"/>
<stop offset="1" stop-color="white" stop-opacity="0.4"/>
</radialGradient>
<radialGradient id="paint3_radial_33_895" cx="0" cy="0" r="1" gradientUnits="userSpaceOnUse" gradientTransform="translate(158.977 228.078) rotate(-120.496) scale(73.8942 84.9458)">
<stop stop-color="white" stop-opacity="0.3"/>
<stop offset="1" stop-opacity="0.3"/>
</radialGradient>
<radialGradient id="paint4_radial_33_895" cx="0" cy="0" r="1" gradientUnits="userSpaceOnUse" gradientTransform="translate(149.094 78.0781) rotate(102.236) scale(66.3511 44.7431)">
<stop stop-color="white" stop-opacity="0"/>
<stop offset="1" stop-color="white" stop-opacity="0.2"/>
</radialGradient>
<radialGradient id="paint5_radial_33_895" cx="0" cy="0" r="1" gradientUnits="userSpaceOnUse" gradientTransform="translate(71.3594 114.016) rotate(45.3237) scale(48.8906 104.136)">
<stop stop-color="white" stop-opacity="0.2"/>
<stop offset="1" stop-color="white" stop-opacity="0.4"/>
</radialGradient>
<radialGradient id="paint6_radial_33_895" cx="0" cy="0" r="1" gradientUnits="userSpaceOnUse" gradientTransform="translate(111.984 138.937) rotate(86.0397) scale(50.9028 108.095)">
<stop stop-color="white" stop-opacity="0.2"/>
<stop offset="1" stop-color="white" stop-opacity="0.3"/>
</radialGradient>
<radialGradient id="paint7_radial_33_895" cx="0" cy="0" r="1" gradientUnits="userSpaceOnUse" gradientTransform="translate(184.25 183.938) rotate(-152.289) scale(87.3639 274.845)">
<stop stop-color="white" stop-opacity="0.2"/>
<stop offset="0.5" stop-color="white" stop-opacity="0.2"/>
<stop offset="1" stop-color="white" stop-opacity="0.3"/>
</radialGradient>
<clipPath id="clip0_33_895">
<rect width="256" height="256" fill="white"/>
</clipPath>
<clipPath id="clip1_33_895">
<rect width="200" height="200" fill="white" transform="translate(28 28)"/>
</clipPath>
</defs>
</svg>

  </g>
  <g transform="translate(3300, 0)">
    <svg xmlns="http://www.w3.org/2000/svg" width="256" height="256" fill="none" viewBox="0 0 256 256"><rect width="256" height="256" fill="#242938" rx="60"/><path fill="#00D8FF" d="M128.001 146.951C138.305 146.951 146.657 138.598 146.657 128.295C146.657 117.992 138.305 109.639 128.001 109.639C117.698 109.639 109.345 117.992 109.345 128.295C109.345 138.598 117.698 146.951 128.001 146.951Z"/><path fill-rule="evenodd" stroke="#00D8FF" stroke-width="8.911" d="M128.002 90.3633C153.05 90.3633 176.319 93.9575 193.864 99.9976C215.003 107.275 228 118.306 228 128.295C228 138.704 214.226 150.423 191.525 157.944C174.363 163.63 151.779 166.598 128.002 166.598C103.624 166.598 80.5389 163.812 63.1834 157.881C41.2255 150.376 28 138.506 28 128.295C28 118.387 40.4096 107.441 61.2515 100.175C78.8617 94.0353 102.705 90.3633 127.998 90.3633H128.002Z" clip-rule="evenodd"/><path fill-rule="evenodd" stroke="#00D8FF" stroke-width="8.911" d="M94.9811 109.438C107.495 87.7402 122.232 69.3783 136.23 57.1971C153.094 42.5206 169.144 36.7728 177.796 41.7623C186.813 46.9623 190.084 64.7496 185.259 88.1712C181.614 105.879 172.9 126.925 161.021 147.523C148.842 168.641 134.897 187.247 121.09 199.315C103.619 214.587 86.7284 220.114 77.8833 215.013C69.3003 210.067 66.0181 193.846 70.1356 172.161C73.6145 153.838 82.3451 131.349 94.977 109.438L94.9811 109.438Z" clip-rule="evenodd"/><path fill-rule="evenodd" stroke="#00D8FF" stroke-width="8.911" d="M95.0123 147.578C82.4633 125.904 73.9194 103.962 70.3531 85.7517C66.0602 63.8109 69.0954 47.0355 77.7401 42.0315C86.7485 36.8163 103.792 42.866 121.674 58.7437C135.194 70.7479 149.077 88.8052 160.99 109.383C173.204 130.481 182.358 151.856 185.919 169.844C190.425 192.608 186.778 210.001 177.941 215.116C169.367 220.08 153.676 214.825 136.945 200.427C122.809 188.263 107.685 169.468 95.0123 147.578Z" clip-rule="evenodd"/></svg>
  </g>
  <g transform="translate(3600, 0)">
    <svg xmlns="http://www.w3.org/2000/svg" width="256" height="256" fill="none" viewBox="0 0 256 256"><rect width="256" height="256" fill="#242938" rx="60"/><path fill="url(#paint0_linear_2_119)" fill-rule="evenodd" d="M83 110C88.9991 86.0009 104.001 74 128 74C164 74 168.5 101 186.5 105.5C198.501 108.501 209 104.001 218 92C212.001 115.999 196.999 128 173 128C137 128 132.5 101 114.5 96.5C102.499 93.4991 92 97.9991 83 110ZM38 164C43.9991 140.001 59.0009 128 83 128C119 128 123.5 155 141.5 159.5C153.501 162.501 164 158.001 173 146C167.001 169.999 151.999 182 128 182C92 182 87.5 155 69.5 150.5C57.4991 147.499 47 151.999 38 164Z" clip-rule="evenodd"/><defs><linearGradient id="paint0_linear_2_119" x1="86.5" x2="163.5" y1="74" y2="185.5" gradientUnits="userSpaceOnUse"><stop stop-color="#32B1C1"/><stop offset="1" stop-color="#14C6B7"/></linearGradient></defs></svg>
  </g>
  <g transform="translate(3900, 0)">
    <svg xmlns="http://www.w3.org/2000/svg" width="256" height="256" fill="none" viewBox="0 0 256 256"><rect width="256" height="256" fill="#00B4E0" rx="60"/><path fill="#fff" d="M40.5 113.234C40.1 113.234 40 113.034 40.2 112.734L42.3 110.034C42.5 109.734 43 109.534 43.4 109.534H79.1C79.5 109.534 79.6 109.834 79.4 110.134L77.7 112.734C77.5 113.034 77 113.334 76.7 113.334L40.5 113.234Z"/><path fill="#fff" d="M25.4 122.434C25 122.434 24.9 122.234 25.1 121.934L27.2 119.234C27.4 118.934 27.9 118.734 28.3 118.734H73.9C74.3 118.734 74.5 119.034 74.4 119.334L73.6 121.734C73.5 122.134 73.1 122.334 72.7 122.334L25.4 122.434Z"/><path fill="#fff" d="M49.6 131.634C49.2 131.634 49.1 131.334 49.3 131.034L50.7 128.534C50.9 128.234 51.3 127.934 51.7 127.934H71.7C72.1 127.934 72.3 128.234 72.3 128.634L72.1 131.034C72.1 131.434 71.7 131.734 71.4 131.734L49.6 131.634Z"/><path fill="#fff" d="M153.4 111.434C147.1 113.034 142.8 114.234 136.6 115.834C135.1 116.234 135 116.334 133.7 114.834C132.2 113.134 131.1 112.034 129 111.034C122.7 107.934 116.6 108.834 110.9 112.534C104.1 116.934 100.6 123.434 100.7 131.534C100.8 139.534 106.3 146.134 114.2 147.234C121 148.134 126.7 145.734 131.2 140.634C132.1 139.534 132.9 138.334 133.9 136.934C130.3 136.934 125.8 136.934 114.6 136.934C112.5 136.934 112 135.634 112.7 133.934C114 130.834 116.4 125.634 117.8 123.034C118.1 122.434 118.8 121.434 120.3 121.434C125.4 121.434 144.2 121.434 156.7 121.434C156.5 124.134 156.5 126.834 156.1 129.534C155 136.734 152.3 143.334 147.9 149.134C140.7 158.634 131.3 164.534 119.4 166.134C109.6 167.434 100.5 165.534 92.5 159.534C85.1 153.934 80.9 146.534 79.8 137.334C78.5 126.434 81.7 116.634 88.3 108.034C95.4 98.7343 104.8 92.8343 116.3 90.7343C125.7 89.0343 134.7 90.1343 142.8 95.6343C148.1 99.1343 151.9 103.934 154.4 109.734C155 110.634 154.6 111.134 153.4 111.434Z"/><path fill="#fff" d="M186.5 166.734C177.4 166.534 169.1 163.934 162.1 157.934C156.2 152.834 152.5 146.334 151.3 138.634C149.5 127.334 152.6 117.334 159.4 108.434C166.7 98.8343 175.5 93.8343 187.4 91.7343C197.6 89.9343 207.2 90.9343 215.9 96.8343C223.8 102.234 228.7 109.534 230 119.134C231.7 132.634 227.8 143.634 218.5 153.034C211.9 159.734 203.8 163.934 194.5 165.834C191.8 166.334 189.1 166.434 186.5 166.734ZM210.3 126.334C210.2 125.034 210.2 124.034 210 123.034C208.2 113.134 199.1 107.534 189.6 109.734C180.3 111.834 174.3 117.734 172.1 127.134C170.3 134.934 174.1 142.834 181.3 146.034C186.8 148.434 192.3 148.134 197.6 145.434C205.5 141.334 209.8 134.934 210.3 126.334Z"/></svg>
  </g>
  <g transform="translate(4200, 0)">
    <svg width="256" height="256" xmlns="http://www.w3.org/2000/svg" viewBox="0 0 256 256" xmlns:xlink="http://www.w3.org/1999/xlink">
    <defs>
        <linearGradient id="studio_one_gradient" x1="17.57" y1="238.43" x2="238.43" y2="17.57"
            gradientUnits="userSpaceOnUse">
            <stop offset="0.1" stop-color="#016cd1" />
            <stop offset="0.9" stop-color="#339bfe" />
        </linearGradient>
    </defs>
    <rect width="256" height="256" rx="60" fill="url(#studio_one_gradient)" />
    <path fill="black"
        d="M86.69.16l6.47,21.11A4.78,4.78,0,0,1,92,26L24.73,94.25A5.9,5.9,0,0,1,20.54,96H0v11.21H23.63a7.45,7.45,0,0,0,5.11-2l79.47-74.63A12,12,0,0,0,112,21.81V.16H86.69" />
    <path fill="black"
        d="M124,0l18.39,54.2a8,8,0,0,1-2,8.34L35.65,164.39a6.05,6.05,0,0,1-4,1.72L0,167.61v8.13H35a7.41,7.41,0,0,0,5-1.93L163,61.71a6.69,6.69,0,0,0,2-6.61L151,0H124" />
    <path fill="black"
        d="M256,75H192.14a7.1,7.1,0,0,0-4.73,1.81L67.38,184a7.59,7.59,0,0,0-2.32,7.43L80.54,256H108.7L89,189.43a5.85,5.85,0,0,1,1.57-5.9L196.66,82.26a5.12,5.12,0,0,1,3.17-1.38L256,80.14V75" />
    <path fill="black"
        d="M256,111.88H222a6.38,6.38,0,0,0-4.23,1.6L128,193c-3,4-2,8,.26,12.69L152.14,256h27.57L154,203c-3-6-5-10,0-15l70.39-64.52a6.32,6.32,0,0,1,3.79-1.65L256,119.61v-7.73" />
</svg>

  </g>
</svg>