<svg width="256" height="256" xmlns="http://www.w3.org/2000/svg" viewBox="0 0 256 256" xmlns:xlink="http://www.w3.org/1999/xlink">
    <defs>
        <linearGradient id="studio_one_gradient" x1="17.57" y1="238.43" x2="238.43" y2="17.57"
            gradientUnits="userSpaceOnUse">
            <stop offset="0.1" stop-color="#016cd1" />
            <stop offset="0.9" stop-color="#339bfe" />
        </linearGradient>
    </defs>
    <rect width="256" height="256" rx="60" fill="url(#studio_one_gradient)" />
    <path fill="black"
        d="M86.69.16l6.47,21.11A4.78,4.78,0,0,1,92,26L24.73,94.25A5.9,5.9,0,0,1,20.54,96H0v11.21H23.63a7.45,7.45,0,0,0,5.11-2l79.47-74.63A12,12,0,0,0,112,21.81V.16H86.69" />
    <path fill="black"
        d="M124,0l18.39,54.2a8,8,0,0,1-2,8.34L35.65,164.39a6.05,6.05,0,0,1-4,1.72L0,167.61v8.13H35a7.41,7.41,0,0,0,5-1.93L163,61.71a6.69,6.69,0,0,0,2-6.61L151,0H124" />
    <path fill="black"
        d="M256,75H192.14a7.1,7.1,0,0,0-4.73,1.81L67.38,184a7.59,7.59,0,0,0-2.32,7.43L80.54,256H108.7L89,189.43a5.85,5.85,0,0,1,1.57-5.9L196.66,82.26a5.12,5.12,0,0,1,3.17-1.38L256,80.14V75" />
    <path fill="black"
        d="M256,111.88H222a6.38,6.38,0,0,0-4.23,1.6L128,193c-3,4-2,8,.26,12.69L152.14,256h27.57L154,203c-3-6-5-10,0-15l70.39-64.52a6.32,6.32,0,0,1,3.79-1.65L256,119.61v-7.73" />
</svg>
